<svg width="100" height="63" viewBox="0 0 100 63" fill="none" xmlns="http://www.w3.org/2000/svg">
<path d="M26.7376 13.9716C21.9149 15.6028 17.5177 19.7872 14.8227 25.1773C12.7659 29.4326 12.6241 30.2128 12.9078 35.2482C13.4042 43.9716 17.0922 49.5745 24.539 53.2624C32.1276 57.0213 40.2837 56.2411 47.5177 51.0638C49.0071 50 49.6454 48.9362 49.6454 47.5177C49.6454 44.8227 47.3049 43.9716 45.1773 45.9574C42.2695 48.5816 37.8014 50.3546 34.0425 50.3546C17.6596 50.3546 11.7021 28.0851 26.0283 20.4255C32.5532 16.9503 38.2979 17.305 43.4752 21.3475C46.5957 23.9007 49.1489 23.9007 49.5035 21.4184C50.3546 15.7447 35.5319 10.922 26.7376 13.9716Z" fill="white"/>
<path d="M50.6382 13.7589C50.4255 14.3263 50.3546 15.3901 50.4964 16.0994C50.7092 17.305 51.9148 17.3759 66.0992 17.5887C81.0638 17.7306 81.4893 17.7306 81.9148 16.3121C82.9787 13.0497 81.7021 12.766 65.8156 12.766C53.617 12.766 50.9219 12.9079 50.6382 13.7589Z" fill="white"/>
<path d="M34.2553 33.0497C34.0426 33.688 34.1135 34.7519 34.539 35.3902C35.1773 36.3831 37.2341 36.5249 50 36.5249C62.766 36.5249 64.8227 36.3831 65.461 35.3902C65.8865 34.7519 65.9575 33.688 65.7447 33.0497C65.3192 32.0568 63.4752 31.915 50 31.915C36.5248 31.915 34.6809 32.0568 34.2553 33.0497Z" fill="white"/>
<path d="M50.8509 50.851C49.858 51.773 50.3545 54.539 51.6311 55.1063C52.2694 55.39 59.2906 55.6028 67.163 55.461C82.4112 55.2482 83.2623 54.9645 81.5601 51.7021C80.8509 50.4255 79.858 50.3546 66.0282 50.3546C57.9431 50.3546 51.0637 50.5673 50.8509 50.851Z" fill="white"/>
</svg>
